<?xml version="1.0" standalone="no"?>
<!DOCTYPE svg PUBLIC "-//W3C//DTD SVG 20010904//EN"
 "http://www.w3.org/TR/2001/REC-SVG-20010904/DTD/svg10.dtd">
<svg version="1.0" xmlns="http://www.w3.org/2000/svg"
 width="416.000000pt" height="416.000000pt" viewBox="0 0 416.000000 416.000000"
 preserveAspectRatio="xMidYMid meet">

<g transform="translate(0.000000,416.000000) scale(0.100000,-0.100000)"
fill="#2563eb" stroke="none">
<path d="M1895 4059 c-615 -67 -1145 -389 -1477 -899 -435 -665 -431 -1533 8
-2192 321 -481 799 -783 1384 -874 138 -22 418 -22 562 -1 576 86 1070 401
1389 884 236 359 355 818 321 1237 -41 495 -235 920 -576 1262 -308 309 -659
490 -1091 564 -141 24 -389 33 -520 19z m242 -590 c42 -15 82 -58 93 -99 17
-64 -10 -124 -77 -170 -21 -14 -21 -18 -10 -84 13 -76 16 -78 98 -90 26 -4 71
-21 101 -39 40 -25 75 -36 138 -45 334 -50 529 -165 627 -372 22 -47 45 -97
51 -112 7 -17 30 -37 62 -53 29 -15 62 -42 79 -66 80 -109 81 -423 3 -534 -17
-25 -48 -50 -82 -67 -49 -24 -56 -32 -72 -77 -58 -171 -174 -299 -337 -373
-83 -38 -403 -163 -716 -279 -215 -80 -241 -88 -255 -74 -11 12 -16 45 -20
133 l-5 117 -115 16 c-374 53 -581 195 -665 457 -15 48 -22 56 -60 72 -113 49
-150 131 -150 340 0 203 32 280 139 336 38 20 57 36 61 54 3 14 24 63 47 109
97 202 288 319 597 367 92 14 124 24 168 50 35 21 79 37 122 44 l68 11 10 71
c9 65 8 72 -11 89 -11 11 -23 19 -27 19 -14 0 -47 65 -50 95 -4 55 1 73 28
106 44 52 103 70 160 48z"/>
<path d="M1813 2679 c-325 -31 -461 -108 -522 -292 -51 -155 -56 -427 -9 -607
41 -160 153 -251 359 -294 164 -34 459 -45 695 -26 237 20 386 66 469 147 83
80 125 237 125 463 0 212 -39 368 -114 457 -62 74 -238 132 -456 152 -130 12
-424 12 -547 0z m-44 -454 c56 -28 80 -166 45 -254 -22 -56 -72 -80 -128 -60
-60 21 -78 63 -74 169 3 62 9 93 23 113 30 47 83 59 134 32z m740 2 c41 -21
61 -73 61 -155 0 -87 -19 -136 -63 -158 -66 -35 -140 14 -153 102 -8 55 0 129
17 168 23 49 87 69 138 43z"/>
</g>
</svg>
