<?xml version="1.0" standalone="no"?>
<!DOCTYPE svg PUBLIC "-//W3C//DTD SVG 20010904//EN"
 "http://www.w3.org/TR/2001/REC-SVG-20010904/DTD/svg10.dtd">
<svg version="1.0" xmlns="http://www.w3.org/2000/svg"
 width="1024.000000pt" height="1024.000000pt" viewBox="0 0 1024.000000 1024.000000"
 preserveAspectRatio="xMidYMid meet">

<g transform="translate(0.000000,1024.000000) scale(0.100000,-0.100000)"
fill="#2563EB" stroke="none">
<path d="M4782 10230 c-482 -34 -982 -140 -1420 -301 -1244 -458 -2256 -1369
-2837 -2554 -168 -344 -281 -649 -369 -1002 -503 -2016 238 -4103 1899 -5353
757 -569 1639 -907 2620 -1002 169 -16 721 -16 890 0 873 85 1660 358 2360
819 1639 1080 2516 2975 2275 4918 -141 1134 -649 2170 -1463 2986 -620 622
-1390 1073 -2230 1308 -285 80 -559 132 -877 166 -171 19 -671 27 -848 15z
m630 -2580 c280 -59 518 -189 724 -394 209 -210 342 -459 400 -752 27 -134 25
-415 -4 -547 -65 -296 -189 -525 -396 -733 -211 -210 -458 -342 -753 -401
-133 -26 -415 -24 -546 5 -296 65 -524 188 -733 397 -210 209 -342 456 -401
752 -24 123 -24 403 0 526 59 296 191 543 401 752 232 232 511 370 836 415
105 14 361 4 472 -20z m708 -3833 c424 -73 755 -202 1078 -419 290 -195 588
-511 755 -799 l27 -46 -122 -124 c-967 -980 -2348 -1364 -3693 -1028 -446 111
-914 331 -1295 607 -190 138 -423 343 -543 476 l-66 74 55 88 c414 662 1134
1105 1924 1183 47 5 468 8 935 6 731 -2 863 -4 945 -18z"/>
</g>
</svg>
