<svg width="215" height="32" viewBox="0 0 215 32" fill="none" xmlns="http://www.w3.org/2000/svg">
<path d="M1 15.5L1 16.5" stroke="#94A3B8" stroke-width="2" stroke-linecap="round"/>
<path d="M4 15.5L4 16.5" stroke="#94A3B8" stroke-width="2" stroke-linecap="round"/>
<path d="M7 15.5L7 16.5" stroke="#94A3B8" stroke-width="2" stroke-linecap="round"/>
<path d="M10 13L10 19" stroke="#94A3B8" stroke-width="2" stroke-linecap="round"/>
<path d="M13 9L13 23" stroke="#94A3B8" stroke-width="2" stroke-linecap="round"/>
<path d="M16 3L16 29" stroke="#94A3B8" stroke-width="2" stroke-linecap="round"/>
<path d="M19 6.5L19 25.5" stroke="#94A3B8" stroke-width="2" stroke-linecap="round"/>
<path d="M22 13L22 19" stroke="#94A3B8" stroke-width="2" stroke-linecap="round"/>
<path d="M25 15L25 17" stroke="#94A3B8" stroke-width="2" stroke-linecap="round"/>
<path d="M28 10L28 22" stroke="#94A3B8" stroke-width="2" stroke-linecap="round"/>
<path d="M31 11L31 21" stroke="#94A3B8" stroke-width="2" stroke-linecap="round"/>
<path d="M34 14.5L34 17.5" stroke="#94A3B8" stroke-width="2" stroke-linecap="round"/>
<path d="M37 12.5L37 19.5" stroke="#94A3B8" stroke-width="2" stroke-linecap="round"/>
<path d="M40 11L40 21" stroke="#94A3B8" stroke-width="2" stroke-linecap="round"/>
<path d="M43 15L43 17" stroke="#94A3B8" stroke-width="2" stroke-linecap="round"/>
<path d="M46 15L46 17" stroke="#94A3B8" stroke-width="2" stroke-linecap="round"/>
<path d="M49 11L49 21" stroke="#94A3B8" stroke-width="2" stroke-linecap="round"/>
<path d="M52 15.5L52 16.5" stroke="#94A3B8" stroke-width="2" stroke-linecap="round"/>
<path d="M55 15.5L55 16.5" stroke="#94A3B8" stroke-width="2" stroke-linecap="round"/>
<path d="M58 15.5L58 16.5" stroke="#94A3B8" stroke-width="2" stroke-linecap="round"/>
<path d="M61 14.5L61 17.5" stroke="#94A3B8" stroke-width="2" stroke-linecap="round"/>
<path d="M64 12L64 20" stroke="#94A3B8" stroke-width="2" stroke-linecap="round"/>
<path d="M67 14.5L67 17.5" stroke="#94A3B8" stroke-width="2" stroke-linecap="round"/>
<path d="M70 9.5L70 22.5" stroke="#94A3B8" stroke-width="2" stroke-linecap="round"/>
<path d="M73 12.5L73 19.5" stroke="#94A3B8" stroke-width="2" stroke-linecap="round"/>
<path d="M76 11L76 21" stroke="#94A3B8" stroke-width="2" stroke-linecap="round"/>
<path d="M79 7L79 25" stroke="#94A3B8" stroke-width="2" stroke-linecap="round"/>
<path d="M82 10L82 22" stroke="#94A3B8" stroke-width="2" stroke-linecap="round"/>
<path d="M85 11L85 21" stroke="#94A3B8" stroke-width="2" stroke-linecap="round"/>
<path d="M88 12.5L88 19.5" stroke="#94A3B8" stroke-width="2" stroke-linecap="round"/>
<path d="M91 15.5L91 16.5" stroke="#94A3B8" stroke-width="2" stroke-linecap="round"/>
<path d="M94 14.5L94 17.5" stroke="#94A3B8" stroke-width="2" stroke-linecap="round"/>
<path d="M97 13L97 19" stroke="#94A3B8" stroke-width="2" stroke-linecap="round"/>
<path d="M100 11L100 21" stroke="#94A3B8" stroke-width="2" stroke-linecap="round"/>
<path d="M103 15L103 17" stroke="#94A3B8" stroke-width="2" stroke-linecap="round"/>
<path d="M106 15.5L106 16.5" stroke="#94A3B8" stroke-width="2" stroke-linecap="round"/>
<path d="M109 15.5L109 16.5" stroke="#94A3B8" stroke-width="2" stroke-linecap="round"/>
<path d="M112 14.5L112 17.5" stroke="#94A3B8" stroke-width="2" stroke-linecap="round"/>
<path d="M115 12.5L115 19.5" stroke="#94A3B8" stroke-width="2" stroke-linecap="round"/>
<path d="M118 11L118 21" stroke="#94A3B8" stroke-width="2" stroke-linecap="round"/>
<path d="M121 15L121 17" stroke="#94A3B8" stroke-width="2" stroke-linecap="round"/>
<path d="M124 15L124 17" stroke="#94A3B8" stroke-width="2" stroke-linecap="round"/>
<path d="M127 4L127 28" stroke="#94A3B8" stroke-width="2" stroke-linecap="round"/>
<path d="M130 8L130 24" stroke="#94A3B8" stroke-width="2" stroke-linecap="round"/>
<path d="M133 9.5L133 22.5" stroke="#94A3B8" stroke-width="2" stroke-linecap="round"/>
<path d="M136 12.5L136 19.5" stroke="#94A3B8" stroke-width="2" stroke-linecap="round"/>
<path d="M139 14.5L139 17.5" stroke="#94A3B8" stroke-width="2" stroke-linecap="round"/>
<path d="M142 12L142 20" stroke="#94A3B8" stroke-width="2" stroke-linecap="round"/>
<path d="M145 14.5L145 17.5" stroke="#94A3B8" stroke-width="2" stroke-linecap="round"/>
<path d="M148 11L148 21" stroke="#94A3B8" stroke-width="2" stroke-linecap="round"/>
<path d="M151 7L151 25" stroke="#94A3B8" stroke-width="2" stroke-linecap="round"/>
<path d="M154 15L154 17" stroke="#94A3B8" stroke-width="2" stroke-linecap="round"/>
<path d="M157 11L157 21" stroke="#94A3B8" stroke-width="2" stroke-linecap="round"/>
<path d="M160 15.5L160 16.5" stroke="#94A3B8" stroke-width="2" stroke-linecap="round"/>
<path d="M163 15.5L163 16.5" stroke="#94A3B8" stroke-width="2" stroke-linecap="round"/>
<path d="M166 10L166 22" stroke="#94A3B8" stroke-width="2" stroke-linecap="round"/>
<path d="M169 14.5L169 17.5" stroke="#94A3B8" stroke-width="2" stroke-linecap="round"/>
<path d="M172 12L172 20" stroke="#94A3B8" stroke-width="2" stroke-linecap="round"/>
<path d="M175 14.5L175 17.5" stroke="#94A3B8" stroke-width="2" stroke-linecap="round"/>
<path d="M178 9.5L178 22.5" stroke="#94A3B8" stroke-width="2" stroke-linecap="round"/>
<path d="M181 12.5L181 19.5" stroke="#94A3B8" stroke-width="2" stroke-linecap="round"/>
<path d="M184 7L184 25" stroke="#94A3B8" stroke-width="2" stroke-linecap="round"/>
<path d="M187 1.5L187 30.5" stroke="#94A3B8" stroke-width="2" stroke-linecap="round"/>
<path d="M190 10L190 22" stroke="#94A3B8" stroke-width="2" stroke-linecap="round"/>
<path d="M193 13.5L193 18.5" stroke="#94A3B8" stroke-width="2" stroke-linecap="round"/>
<path d="M196 12.5L196 19.5" stroke="#94A3B8" stroke-width="2" stroke-linecap="round"/>
<path d="M199 15.5L199 16.5" stroke="#94A3B8" stroke-width="2" stroke-linecap="round"/>
<path d="M202 14.5L202 17.5" stroke="#94A3B8" stroke-width="2" stroke-linecap="round"/>
<path d="M205 13L205 19" stroke="#94A3B8" stroke-width="2" stroke-linecap="round"/>
<path d="M208 11L208 21" stroke="#94A3B8" stroke-width="2" stroke-linecap="round"/>
<path d="M211 14.5L211 17.5" stroke="#94A3B8" stroke-width="2" stroke-linecap="round"/>
<path d="M214 15.5L214 16.5" stroke="#94A3B8" stroke-width="2" stroke-linecap="round"/>
</svg>
